<svg version="1.0" xmlns="http://www.w3.org/2000/svg" width="788" height="788" viewBox="0 0 591 591"><path d="M291 44.4c0 1.3-.3 3.9-.6 5.7-1 4.9.1 3.3 1.9-2.9 1.4-4.5 1.4-5.2.1-5.2-.8 0-1.4 1-1.4 2.4zM296.8 47.5c-1.4 5.1-1.4 5.5.2 5.5 1.1 0 2.1-1.4 2.9-4.1.7-2.3 1.5-4.7 1.8-5.5.3-.9-.2-1.4-1.4-1.4-1.5 0-2.3 1.2-3.5 5.5zM283 44.9c0 1-.3 3.3-.6 5-.6 2.7-.4 3.1 1.4 3.1 1.7 0 2.1-.8 2.4-5 .2-4.2 0-5-1.4-5-1.1 0-1.8.8-1.8 1.9zM304.8 48c-1.6 4.8-1.6 5 .3 5 1.4 0 2.6-1.4 3.9-4.6 2.5-5.6 2.5-5.4-.3-5.4-1.9 0-2.6.9-3.9 5zM275 49c0 3.8.4 5 1.5 5s1.5-1.2 1.5-5-.4-5-1.5-5-1.5 1.2-1.5 5zM314.1 47.7c-.8 2.1-1.6 4.4-1.8 5-.3.8.4 1.3 2 1.3 1.9 0 2.7-.8 4.1-4.3 2.1-5.5 2-5.7-.7-5.7-1.8 0-2.6.9-3.6 3.7zM249 51c0 3.3.3 6 .8 6 2-.1 3.1-2 3.8-6.8.6-5.1.6-5.2-2-5.2-2.5 0-2.6.2-2.6 6zM258 50c0 4.6.2 5 2.4 5 1.9 0 2.4-.6 3-3.8.9-5.9.8-6.2-2.4-6.2-2.9 0-3 .1-3 5zM267.8 49.5c-.3 3.8 0 4.5 1.4 4.5 1.5 0 1.8-.9 1.8-4.5 0-3.2-.4-4.5-1.4-4.5-.9 0-1.5 1.5-1.8 4.5zM323.2 49.9c-1.9 4.7-1.9 4.9-.2 5.4 1.4.4 2.3-.6 3.8-4.3 1.1-2.7 1.8-5.1 1.4-5.4-1.5-1.6-3.1-.2-5 4.3zM241.1 52c-.1 4.8.1 6 1.4 6 1.2 0 1.5-1.3 1.5-6 0-4.4-.4-6-1.4-6-.9 0-1.4 1.7-1.5 6zM331.3 51.5l-2.1 5.5h2.1c1.7 0 2.7-1.2 4.4-5.5l2.1-5.5h-2.1c-1.7 0-2.7 1.2-4.4 5.5zM233 53c0 5.3.2 6 2 6s2-.7 2-6-.2-6-2-6-2 .7-2 6zM340.1 52.1c-2.2 5.5-2.1 6.9.9 6.9 2 0 3.9-3.3 5.4-9.3.6-2.4.4-2.7-1.7-2.7-2 0-2.8 1-4.6 5.1zM351.1 50.2c-.5 1.3-1.6 4-2.4 6-2.5 5.9-.4 5.3 2.6-.8 1.5-3 2.7-5.9 2.7-6.4 0-1.9-2.1-1-2.9 1.2zM225.7 49.7c-.2.5-.5 3.2-.6 6-.2 4.8 0 5.3 1.8 5.3 1.9 0 2.1-.6 2.1-6 0-4.6-.3-6-1.4-6-.8 0-1.7.3-1.9.7zM358 50.4c0 .2-1.1 2.9-2.5 6-2 4.6-2.2 5.6-.9 5.6 1.5 0 6.6-9.8 5.7-11.3-.4-.7-2.3-1-2.3-.3zM218.8 57c.5 7.8 2.2 7.8 2.2 0 0-4.1-.4-6-1.2-6-.9 0-1.2 1.7-1 6zM211.5 57.7c.7 5.3 1.9 8.4 2.8 7.2.3-.2.2-3.2-.1-6.7-.3-4.5-.8-6.2-1.9-6.2-1.2 0-1.3 1.1-.8 5.7zM204 54c-2.7.7-2.7.9-1.5 9.2.6 4.7 1.6 5.6 4.4 3.9 1.1-.7 1.2-2.2.5-7.3-.9-6.2-1-6.4-3.4-5.8zM363 57.6c-2.5 5.8-2.5 6.4.3 6.4 1.7 0 2.8-1.1 4.5-4.6 2.4-4.9 2.2-6.4-.9-6.4-1.4 0-2.5 1.3-3.9 4.6zM372.5 60c-2.5 5-2.6 7-.1 7 1.2 0 9.2-9.8 8.5-10.4-.2-.2-1.6-.6-3.1-1-2.5-.6-3-.2-5.3 4.4zM192 58.7c0 1.6.3 5.1.6 8l.7 5.1 2.9-1c2.4-.9 2.8-1.5 2.4-3.7-.3-1.4-.8-4.5-1.1-6.9-.6-3.6-1-4.2-3.1-4.2-2 0-2.4.5-2.4 2.7zM381.9 63.1c-3.4 4.1-3.9 5.3-2.8 6 2.1 1.3 2.1 1.3 6.1-5.1 4.7-7.5 2.7-8.1-3.3-.9zM183.6 59.8c-.3.5 0 4.1.7 8.1 1.1 6.6 1.4 7.1 2.9 5.9 1.5-1.1 1.7-2.3 1-7.8-.5-4.9-1.1-6.6-2.4-6.8-.9-.2-1.9.1-2.2.6zM389.4 65.4c-3.5 5.3-3.8 7.6-.9 7.6 1.7 0 8.8-10.7 8-12.1-1.4-2.1-3.7-.6-7.1 4.5zM176.5 62.2c-1.1.6-2.1 1.2-2.3 1.3-.2.2.5 3.4 1.4 7.3 1.4 5.9 1.9 6.9 3.5 6.5 2.2-.6 2.2-1.6.6-10-1.1-5.7-1.3-6.1-3.2-5.1zM397.6 69.2c-2.9 4.7-3.4 6.3-2.4 7 1.3.8 4.2-2 8.9-8.4 1.9-2.7 1.9-2.7 0-3.7-1.1-.6-2.2-1.1-2.4-1.1-.3 0-2.1 2.8-4.1 6.2zM166.5 65.9c-.5 1 2.3 13 3.4 14.3.4.4 1.2.4 1.9-.1 1-.6.9-2.2-.4-7.9-1.5-6.7-3.2-8.9-4.9-6.3zM405.6 72.8l-4.5 5.9 2.5 1.2c4 1.8 4.7 1.4 8.8-4.5 3.9-5.6 3.9-6.6-.1-7.8-1.7-.6-2.9.3-6.7 5.2zM158.8 69c-1.5 1-1.5 1.5.4 7.3 2.4 7.2 3.1 8.2 5.1 7.1 1.2-.8 1.1-1.9-.5-8.2-2.1-7.5-2.3-7.7-5-6.2zM416.7 76.6c-2 2.9-3.7 5.8-3.7 6.3 0 1 .4 1.2 2.9 1.5 1.3.1 9.3-10.3 8.7-11.3-.3-.5-1.4-1.1-2.3-1.3-1.3-.4-2.9 1-5.6 4.8zM150.7 73.6c-1.5.8-2.7 1.7-2.7 2.1 0 .3.9 3.7 2.1 7.5l2 6.9 2.9-1.8c3.2-1.9 3.2-2.4 0-11.4-1.6-4.6-1.6-4.7-4.3-3.3zM425.1 81c-3.6 5.2-4 6.1-2.5 6.7 1 .4 2.2-.1 3.3-1.4 7.3-9.1 7.5-9.4 6-10.4-2.2-1.4-2.4-1.3-6.8 5.1zM141.8 78.4c-2.3 1.7-2.3 1.5.9 8.3 3.2 7.1 3.1 6.9 4.3 5.7.7-.7.3-3.4-1.2-8.2-2.1-6.4-2.5-7-4-5.8zM434.4 82.8c-5.6 7-5.8 7.3-4.3 8.3.8.5 1.7.9 2.1.9.8 0 8.8-10.3 8.8-11.2 0-.3-.8-.8-1.9-1.1-1.2-.3-2.7.7-4.7 3.1zM133.3 84.5l-2.1 1.5 2.9 6c1.6 3.3 3.2 6 3.6 6 .5 0 1.6-.7 2.6-1.4 1.7-1.3 1.7-1.7-1.3-7.5-1.6-3.4-3.1-6.1-3.3-6.1-.1 0-1.2.7-2.4 1.5zM440.9 88.5c-3.9 5.2-4.2 6.8-1.4 7.7.6.1 3.1-2 5.8-4.8l4.7-5.1-2.4-1.7c-2.5-1.6-2.6-1.6-6.7 3.9zM124.3 90.5l-2.2 1.5 2.2 6c1.2 3.3 2.7 6 3.2 6 .6 0 2-.8 3.3-1.8l2.3-1.8-2.5-5.7c-1.4-3.1-2.9-5.7-3.3-5.7-.5 0-1.8.7-3 1.5zM449.1 93.6c-4.6 5.2-4.8 5.9-2.4 6.8 2.4 1 11.7-8.2 10.1-10.1-1.8-2.2-3.5-1.5-7.7 3.3zM115.7 96.1c-1.6 1-1.5 1.4 1.4 7 3.1 5.8 4.2 6.8 5.3 5 .6-1-3.4-13.1-4.3-13.1-.4 0-1.4.5-2.4 1.1zM456.1 99.4c-4 4.1-4.7 6.6-1.7 6.6.6 0 3.1-1.9 5.4-4.3 3.3-3.3 3.9-4.6 3-5.5-1.7-1.7-2-1.6-6.7 3.2zM108.1 100.9c-1.2.8-.7 2.1 2.5 6.9 2.9 4.6 4.2 5.8 5.1 5 1-.8.5-2.3-2-6.9-3.4-6.3-3.5-6.3-5.6-5zM463.3 104.5c-6.5 7.9-4.2 10.1 2.6 2.4 3.4-3.9 3.8-4.9 2.7-5.8-1.1-1-2.2-.3-5.3 3.4zM100.5 107c-1.7 1.8-1.6 2.1 2.1 6.9 4.1 5.3 5.4 6 7.3 3.7.8-1 .3-2.6-2.6-7-2.1-3.1-4-5.6-4.4-5.6-.3 0-1.4.9-2.4 2zM468.6 110.3c-4.9 6-4.6 6.7.5 1.2 2.3-2.5 4-4.8 3.7-5.1-.3-.3-2.2 1.5-4.2 3.9zM331.5 110.1c-4.4.4-11.4 1.9-15.5 3.3-4 1.4-7.4 2.6-7.6 2.6-1.2 0-9.9 13.7-16.3 25.8-9.9 18.8-15.3 27.1-23.2 35.4-5.3 5.5-8.9 11.4-12.1 19.8-1.7 4.4-3 12.2-3.8 23-.9 10.4-1.9 15.6-7.8 38-2.3 8.8-3.3 15.6-4.2 28.5-.7 10.9-2 20.9-3.6 28-1.4 6-3 15.1-3.5 20-.5 5-2 13.3-3.4 18.5-1.4 5.2-3.5 14.7-4.6 21-2 11.8-3.6 17-4.9 17-1.2 0-8.5-21.3-10.5-30.5-.9-4.4-3.6-15.7-6-25-5.4-21.4-7.2-33.1-8.6-57.2-1.1-17.2-1-20.1.5-27.5.9-4.6 3.2-16.6 5.1-26.8 2-10.2 4.6-23 6-28.5 4.1-16.8 4.1-15.5.5-11.5-3.1 3.5-15.4 22.5-21.4 33-5.3 9.3-8.4 17.1-12.1 30.6-6.1 22.1-6.9 28.6-5.6 45.9.7 8.2 1.6 17.7 2.1 21 1 6.4 3.3 28.1 5 46 .5 6 1 14.8 1 19.5 0 16.4 2.6 33.2 9.7 64 2.7 11.4 3.4 13.1 8.3 20 11.7 16.5 13.8 18.7 19.8 21.6 3.1 1.5 7.1 3.8 8.7 5 3.6 2.7 30.4 15.6 36 17.4 5.3 1.7 9.6 3.8 12 6 1.1 1 4.9 2.5 8.5 3.3 6.1 1.4 6.7 1.4 10.7-.4 2.3-1 4.6-1.9 5.1-1.9s1.5-.6 2.1-1.4c.9-1.1.4-2.4-2.4-6.1-2-2.6-3.5-4.8-3.3-5 .2-.2 9-.5 19.6-.6 10.7-.2 19.6-.7 19.9-1.2.3-.4.2-1.9-.1-3.2-.5-1.9-1.4-2.4-5.8-3-7.8-.9-15.5-2.4-22.1-4.2-6.6-1.9-10.5-5.8-8.9-9 .5-1 1.2-3.6 1.6-5.8.4-2.2 1.6-7 2.7-10.6 1-3.6 2.8-13.4 3.9-21.8 1.1-8.3 2.7-17.1 3.5-19.4 1.5-4.6 3.1-17.5 3.9-31.9.4-9.2 1-11.2 3.1-10.5 1.5.6 4.6-11.6 3.9-15.3-.7-3.2 1-10 7.5-31 2.8-9 5.7-20.3 6.6-25 .8-4.7 2.1-10.8 3-13.6 1.5-5.1 1.6-5.2 5.8-5.6 2.3-.2 6.5-.2 9.4 0 4.6.4 5.3.8 6.9 3.8 2 3.6 3.7 4.3 11.9 4.5 10.6.2 10.4.4 7.9-5.5-.7-1.7-.4-1.9 2.6-1.3 1.8.4 6.1.2 9.6-.4 5.8-1 6.4-1.3 6.4-3.6 0-5.6-1.3-6.3-11.1-6.3-10.8 0-22.9-2.3-27.5-5.3-2.4-1.6-4.6-4.9-8.3-12.4-4.6-9.2-5.3-11.6-7.5-25.5-1.4-8.4-3.5-23.4-4.7-33.2-1.9-15-2-18.6-1-22.4 1.3-4.9 5.9-11.8 11.3-16.8 6.6-6.2 24.9-19.4 26.9-19.4.5 0 1.5-1.1 2.1-2.5.6-1.4 2.6-3.3 4.4-4.1 1.8-.9 3.8-2.9 4.5-4.6 1.1-2.6 1-3.5-.6-6.4-.9-1.8-2.9-3.8-4.4-4.4-1.4-.6-4.2-2-6.1-3.1-1.9-1-4.9-1.9-6.6-1.9-4.7 0-9.5-1.9-12.9-5.1-2.8-2.7-10.4-6.1-12.9-5.8-.6.1-4.7.5-9.1 1zm-15.2 14.4c-.1.5-1.7 1.2-3.5 1.5-4.4.7-4.9 3.4-.9 5.5 3.1 1.5 4.3 4.5 1.9 4.5-1.9 0-8.8-6.6-8.8-8.4 0-2.9 3.1-4.7 7.4-4.4 2.2.2 4 .7 3.9 1.3zm31.1.4c1.6 1.7 1.5 1.9-1.6 2.5-4.1.8-6.1-.9-3.4-3 2.5-1.8 2.9-1.8 5 .5zm15.3 8.8c4.4 1.4 5.9 1.5 8.6.5 5.1-1.8 8.7-1.6 8.7.7 0 2.6-2.5 4.4-5.2 3.8-2.6-.7-21.2 5.2-21.6 6.8-.5 1.9 3.7 1.6 11.2-.9 4.2-1.4 7.9-2.6 8.2-2.6 1.5 0-2.1 3.1-6.4 5.6-2.6 1.5-7.2 4.6-10.2 6.8-21.4 15.8-26.5 24.7-32.9 57.6-5.5 28.4-5.4 48 .4 60.7 1.3 2.9 2 5.3 1.4 5.3-.5 0-.9 3.3-.9 7.4v7.5l3.5-.6c2.5-.4 3.5-.2 3.5.7 0 3.4-5.3 26.5-6.9 30.1l-1.9 4.1-1.5-2.3c-5.6-8.7-7.3-18.8-8.1-49.4-.7-24.6-3-35.4-11.6-54.5s-12-30-12-39c0-6.5.5-8.2 4.1-15.9 8.7-18 16.3-25.5 28.1-27.7 9.3-1.8 18.6-1.8 22 0 2.4 1.3 2.8 1.2 5-1.1 1.9-2.1 6.9-5.1 8.7-5.3.2 0 2.8.8 5.8 1.7zM270 253.2c0 .6 2 5.2 4.4 10.2 2.4 5 5.8 12 7.4 15.6 3.1 6.4 7.2 10.6 16.2 16.3 2.9 1.9 3.3 1.9 2.7.4-.5-1.3.1-2.1 2.1-2.9 1.5-.6 3-1.1 3.5-1 1.9.5.2-3.6-4.4-10.4-4.6-6.8-5.1-8.1-5.6-14.7-.7-9.5 1.2-8 3 2.4 1 5.5 2.3 8.8 4.7 12.3 4.9 7.2 8 19.6 4.8 19.6-.6 0-1.9.7-2.9 1.6-2.1 1.9-3.2 1.4-13.1-6.3-8.8-6.6-12.9-12.2-16.7-21.9-1.8-4.9-4.1-10-5.1-11.4-1.8-2.6-3.2-11-1.8-11 .5 0 .8.5.8 1.2zm92.5 39.3c0 2.5-.3 3.1-1.2 2.3-1.4-1.1-1.7-5-.6-6.1 1.1-1.2 1.8.3 1.8 3.8zm5.5-.5c0 1.1-.4 2-.9 2-1.4 0-2.3-1.8-1.6-3 1-1.7 2.5-1.1 2.5 1zm5 1c0 1.1-.4 2-1 2-.5 0-1-.9-1-2s.5-2 1-2c.6 0 1 .9 1 2zm-84.9 5.1c3.6 2.8 5.2 5.9 3.1 5.9-1.3 0-9.2-5.9-9.2-6.8 0-.9 1-2.2 1.8-2.2.2 0 2.2 1.4 4.3 3.1zm-2.6 5.6c3 1.5 5.5 3 5.5 3.4 0 2-2.5 1.8-7.5-.5-4.1-1.8-5.3-2.9-4.9-4 .8-2 .4-2.1 6.9 1.1zm.3 9.9c1.3.3 2.2 1 1.9 1.7-.3.8-2.3 1.1-6.3.9-6.6-.4-6.9-.5-6.1-2.6.6-1.5 3.4-1.5 10.5 0zm0 7.1c-.4 2.4-10.8 3.3-10.8.9 0-1.7 1.9-2.3 7.3-2.5 3.2-.1 3.8.2 3.5 1.6zm1.2 7.2c0 1.1-1.9 3-5.1 5-5.9 3.6-5.9 3.6-5.9 1.3 0-.9 2.2-3.1 4.8-4.9 5.6-3.7 6.2-3.9 6.2-1.4zm1 13c-.4.9-2.2 2.9-3.9 4.5-2.4 2.3-3.4 2.7-4.3 1.8-.9-.9-.2-2.2 3.2-5.7 3-3 4.6-4.1 5.1-3.3.4.7.4 1.9-.1 2.7zm4.5 7.1c.5.9-1.4 4.1-5.2 8.9-.2.3-.8 0-1.5-.7-.8-.8-.4-2.1 1.7-5.2 2.9-4.1 3.9-4.8 5-3zm6.9 6.9c1 1.5-4.5 12.4-5.6 11.3-.7-.7-.3-2.9 1.3-6.6 2.2-5.5 3.2-6.5 4.3-4.7zm5.6 4.1c0 2.3-5 12.1-5.9 11.5-.7-.3-.1-2.8 1.4-6.2 1.4-3 2.5-5.7 2.5-5.9 0-.2.5-.4 1-.4.6 0 1 .4 1 1zm7 5.4c0 2.1-4.2 11.6-5.1 11.6-2 0-1.9-2.5.1-7.6 2-4.9 5-7.4 5-4zm-45.3 125.8c3 2.8 2.9 4-.4 3.6-2.2-.2-2.9-.9-3.1-3.1-.4-3.3.4-3.4 3.5-.5z"/><path d="M316.7 277.6c-.9 1-.9 16.4.1 16.4 2.4-.1 3.2-2.2 3.4-9 .2-6.1 0-7.5-1.2-7.8-.9-.1-1.9 0-2.3.4zM472.1 114.6c-3.4 3.9-3.9 4.9-2.9 6.2 1.1 1.2 1.9.7 5.6-3.3 2.3-2.6 4.1-5.2 3.9-5.8-.8-2.4-2.7-1.5-6.6 2.9zM92.8 113.7c-1.6 1.5-1.5 1.8 1 4.7 1.5 1.8 3.4 4.3 4.4 5.6l1.6 2.5 2.1-2 2-2-4.1-5.3c-2.2-2.8-4.4-5.2-4.7-5.2-.4 0-1.4.8-2.3 1.7zM478.3 120c-2.4 2.6-4.3 5.2-4.3 5.8 0 2.9 2 1.6 5.8-3.8 2.3-3.2 3.9-6.1 3.4-6.3-.4-.2-2.6 1.8-4.9 4.3zM86.3 120.1c-.9.9-.1 2.5 2.9 6.6 3.9 5.2 6 6.2 6.5 3.2.3-1.5-6.2-10.9-7.5-10.9-.4 0-1.3.5-1.9 1.1zM482.6 125.5c-2 3-3.6 5.8-3.6 6.2 0 .5 1.4 2.5 2.9 4.6l2.9 3.8 2.8-4.8c1.5-2.6 3.3-5.9 4.1-7.2 1.4-2.1 1.3-2.5-1.3-5.2-1.5-1.6-3.1-2.9-3.4-2.9-.4 0-2.4 2.5-4.4 5.5zM81.2 126.2c-1.9 1.9-1.4 3.1 3.3 7.8 3.6 3.6 4.5 4 5.1 2.7.5-1.4-1.6-5-6.6-11-.3-.4-1.1-.2-1.8.5zM495.8 129.7c-.3.4-1.7 2.9-3.3 5.5-1.5 2.7-2.5 4.8-2.2 4.8.2 0 2.1-2.1 4.2-4.6 2.5-3.1 3.4-4.9 2.7-5.6-.5-.5-1.2-.6-1.4-.1zM75.2 133.6c-.8 1.6-.2 2.6 3.9 6.2 4.1 3.7 5 4.1 5.5 2.7.5-1.2-.7-3.1-3.9-6.2-4.1-4.2-4.6-4.4-5.5-2.7zM496.2 140.1c-2.9 3.5-5.2 6.6-5.2 7 0 .3.8 1.3 1.8 2.3 1.8 1.5 2.1 1.4 5.8-3.1 6.9-8.4 6.6-7.8 4.6-10.3l-1.9-2.3-5.1 6.4zM69.7 141.8c-1.6 1.7-1.4 2.1 2.7 6s4.4 4.1 6 2.3c2.3-2.6 2-3.6-2.1-7-4.4-3.6-4.5-3.6-6.6-1.3zM502.2 148.5c-5.8 7.1-5.4 10 .6 4.3 2.1-1.9 4.8-4.4 6.1-5.6 2-1.8 2.2-2.4 1.1-3.7-.7-.8-1.5-1.5-1.9-1.4-.3 0-3 2.9-5.9 6.4zM63.1 149.4c-1 1.1-.3 2.1 3.2 5 4.6 3.8 6.1 4.3 7.3 2.5.7-1.2-6.3-8.9-8.2-8.9-.6 0-1.7.6-2.3 1.4zM507.7 154.3c-3.2 2.9-5.7 5.7-5.7 6.3 0 .6.8 1.8 1.8 2.7 1.7 1.6 2.1 1.3 7.5-4.1 5.5-5.6 5.6-5.8 3.9-7.9l-1.7-2.2-5.8 5.2zM56.9 157.1c-.6 1.2-.7 2.4-.2 2.8.4.4 2.8 2.3 5.2 4.1 4.2 3.2 4.4 3.3 5.7 1.5 2-2.7 1.9-2.9-3-6.9-5.1-4.2-6.1-4.4-7.7-1.5zM513.1 163.6c-4.2 4.6-4.9 5.9-4.1 7.4 1.7 3.1 2.3 3 7.9-1.9l5.3-4.8-1.6-3.1c-.9-1.8-1.8-3.2-2-3.2-.2 0-2.7 2.5-5.5 5.6zM52.6 165.3c-.6 2.2 1.2 4.3 7.2 8.4 2 1.4 2.5 1.4 3.3.2 1.5-2.4 1-3.3-4.5-7.1-5.3-3.7-5.4-3.7-6-1.5zM519 172.9l-5.4 4.7 2 2.7c1 1.4 2.2 2.7 2.6 2.7 1 0 8.8-9.2 8.8-10.4 0-.6-.6-1.9-1.3-2.8-1.2-1.5-1.8-1.2-6.7 3.1zM49.1 175.2c-.6 1.7-1 3.2-.9 3.3 3.2 2.3 8.4 5.5 9 5.5.4 0 1.2-1 1.9-2.2 1.2-2.2 1.1-2.4-6.3-7.8l-2.6-2-1.1 3.2zM525.1 182.4l-4.4 4.4 2.2 3.1c1.2 1.7 2.4 3.1 2.7 3.1 1 0 6.5-12.4 6-13.6-.8-2.2-1.9-1.7-6.5 3zM45 185.1c-.7 1.1-1 2.2-.8 2.3.2.1 2.2 1.4 4.6 2.9 2.3 1.5 4.7 2.5 5.2 2.2 2.1-1.3.8-4.4-3-6.9-4.8-3.1-4.7-3.1-6-.5zM532.1 190.8 529 197l2.5 1.6c1.4.9 2.7 1.5 2.8 1.3.2-.2 1.1-3 2.1-6.3 1.6-5.2 1.6-6 .3-7.4-1.4-1.3-1.9-.8-4.6 4.6zM41 195.6c-.7 1.9-1 3.7-.8 3.8.1.2 2.3 1.3 4.7 2.6 4.6 2.3 5.5 2 6.5-2.2.5-2.3.1-2.9-4-5.2-2.6-1.4-4.8-2.6-4.9-2.6-.2 0-.9 1.6-1.5 3.6zM539.8 197.3c-1.5 4.7-1.5 5.4-.1 6.9 2.3 2.5 3.1 2.2 3.7-1.2.3-1.7.9-4.3 1.2-5.9.4-2.2.1-3.2-1.4-4-1.6-.9-2-.4-3.4 4.2zM548.1 202.8c-.9 4.4-.8 5.7.1 6.4 2.6 1.6 3.8.8 3.8-2.5 0-1.7.3-4.1.6-5.2.3-1.3-.2-2.4-1.4-3.2-1.8-1.1-2-.7-3.1 4.5zM556.5 205.3c-.4 2.5-.5 5.2-.3 5.9.3.7.8-1.1 1.3-4 .4-2.9.5-5.6.2-5.9-.3-.2-.9 1.6-1.2 4zM562.7 203.7c-.7 1.2-2 10.9-1.4 10.3 1.1-1.1 3.5-11 2.7-11-.5 0-1.1.3-1.3.7zM37.2 207.2c-.5 1.8-.9 3.4-.8 3.4.5.6 9.9 5.4 10.1 5.2.2-.2.6-1.9 1-3.8.6-3.4.5-3.6-4-5.8-2.5-1.2-4.8-2.2-5-2.2-.2 0-.8 1.5-1.3 3.2zM568.6 206.2c-.3.7-.9 2.8-1.5 4.7-1.3 4-.8 5.1 2.3 5.1 2 0 2.4-.6 3-4.6.3-2.5.3-5 0-5.5-.8-1.3-3.4-1.1-3.8.3zM576.6 211.8c-.4 3.2-.2 4.8.6 5.4 1.6.9 2.6-1.4 2.7-5.8.1-5.3-2.5-5-3.3.4zM584 213.9c0 3.4.5 5.1 1.5 5.5 1.2.4 1.5-.4 1.5-4.3 0-3.4-.5-5.1-1.5-5.5-1.2-.4-1.5.4-1.5 4.3zM34.6 215.7c-.3.3-.6 1.6-.6 2.8 0 1.7 1 2.6 4.3 3.9 5.5 2.1 6.7 2 6.7-.2 0-2-9.2-7.7-10.4-6.5zM32.6 225.7c-.6.6-.9 4.3-.3 4.3.1 0 2.6.9 5.5 2l5.3 2-.3-2.6c-.2-2.1-1.2-3-4.9-4.5-2.6-1-5-1.5-5.3-1.2zM531.9 232.7c-2.6 2.6-5.2 5.7-5.7 6.9-1.1 2-.9 2.1 2.6 1.4 11.9-2.3 16-5 14.5-9.7-.7-2.1-1.7-2.9-3.9-3.1-2.3-.2-3.8.6-7.5 4.5zM32 236.9c0 1.3 1.3 2.4 4 3.5 5.2 2.1 6 2 6-.3 0-1.4-1.3-2.4-4.7-3.5-5.7-2-5.3-2-5.3.3zM30.7 245.9c-.3 1.4-.4 2.7-.3 2.8.2.2 2.4.9 4.9 1.7 4.7 1.4 4.7 1.4 5.3-1 .4-1.4.5-2.6.3-2.7-.2-.1-2.5-.9-5.1-1.8l-4.6-1.6-.5 2.6zM503.9 251.7c-1.8 2.7-4.5 5.8-5.8 7l-2.4 2.3h2.9c3.2 0 10.9-3.3 13.6-5.7 2.1-1.9 2.3-5.4.6-7.1-2.5-2.5-5.4-1.3-8.9 3.5zM550.4 250.3c-2.2 1.2-5.2 3.2-6.7 4.3-3.4 2.8-2.1 3.4 7.2 3.4 7.6 0 11.1-1.7 11.1-5.5 0-2.6-2.6-4.6-5.7-4.4-1 0-3.6 1-5.9 2.2zM29.5 257.1c-.4 1.7-.4 3.3 0 3.7.8.8 8.8 3.2 9.3 2.8.1-.2.5-1.9.8-3.8.6-3.5.5-3.5-3.9-4.7-2.5-.6-4.8-1.1-5.1-1.1-.2 0-.7 1.4-1.1 3.1zM29 268.4c0 1.9.7 2.5 3.6 3 1.9.4 4.2 1 5 1.3 1 .4 1.4-.2 1.4-2 0-2.1-.7-2.6-4.4-3.6-5.8-1.4-5.6-1.5-5.6 1.3zM529.5 267.5c-.5.2-2.3.6-3.8.9-3.5.8-2.7 2.2 2.7 4.7 7.9 3.6 13.7 1.9 11.6-3.5-.8-2.3-1.5-2.6-5.2-2.5-2.4 0-4.7.2-5.3.4zM416 272.6c-3 1.5-6.6 2.9-7.9 3.3-2.4.7-2.4.7 1.1 2.9 3.8 2.3 9 2.8 13.2 1.2 2.2-.8 2.6-1.6 2.6-4.9 0-2.6-.5-4.1-1.6-4.5-1.9-.7-1-1-7.4 2zM465 272.9c-3.6 1.6-7.4 3.2-8.5 3.6-3 1.1 5.6 3.5 12.5 3.5 7.9 0 9-1 6.5-5.7-1.1-2-2.4-3.8-3-4-.5-.1-3.9 1-7.5 2.6zM28 277.5c0 2.1.8 2.7 5.2 4 2.8.8 5.3 1.5 5.5 1.5.2 0 .3-1.1.3-2.5 0-2.7-1.5-3.6-7.7-4.8-3-.6-3.3-.4-3.3 1.8zM432 280.8c0 1.9 8.4 8.3 10.5 8 2.4-.4 3.3-4.9 1.3-6.6-1.9-1.5-11.8-2.7-11.8-1.4zM496 285c4.7 3.9 9 5.3 12.4 4.1 1.4-.6 2.6-1.7 2.6-2.4 0-2-7.7-4.7-13.5-4.7h-4.9l3.4 3zM28 286.8c0 1.5 1.1 2.2 4.4 3.1 5.8 1.4 6.6 1.4 6.6-.4 0-1.6-2.3-2.8-7.7-4-2.9-.6-3.3-.4-3.3 1.3zM549.4 288.8c5 5.6 16.8 8 17.4 3.6.3-1.9-.4-2.3-4.5-3.2-2.6-.6-7-1.4-9.8-1.7-5-.7-5-.7-3.1 1.3zM461.2 295c4 8.8 6.3 11.2 10.8 10.8 2.9-.3 3.5-.7 3.8-2.9.4-3.7-3-7.2-10.9-11.1l-6.6-3.3 2.9 6.5zM525.6 294.7c6 11 11.1 13.9 14.3 8.1 1.4-2.5 1.4-2.9-.5-5.5-2.6-3.4-12.1-9.2-15.2-9.3-2.3 0-2.2.1 1.4 6.7zM415.7 296.1c5.7 5.9 6.2 6.1 9.6 5.5 1.9-.4 4.6-1.5 5.9-2.6 2.2-1.8 2.2-2 .8-4.7-1.8-3.3-4.5-4-14.9-4.2l-7.3-.1 5.9 6.1zM28 295.5c0 1.8.7 2.4 3.8 3 2 .3 4.7.9 6 1.2 1.7.4 2.2.1 2.2-1.4s-1.3-2.2-6-3.5l-6-1.6v2.3zM29 304.1c0 1.7.8 1.9 6.2 1.9 3.4 0 5.9-.2 5.7-.4-.2-.2-3-1.1-6.1-1.9-5.6-1.4-5.8-1.4-5.8.4zM502 305.7c0 .4.7 3.2 1.5 6.2 1 3.8 2.4 6.2 4.7 8.2 6.7 5.8 9 2.6 3.8-5.3-2.9-4.4-10-10.8-10-9.1zM446 307.7c0 .4 1 4.2 2.1 8.5 1.7 6.1 2.7 8.3 4.9 9.8 3.9 2.8 6.8 2.6 7.6-.5.9-3.8-.3-7.1-4.3-11.6-4.2-4.7-10.3-8.3-10.3-6.2zM30 313.9c.4 2.3.9 4.4 1.2 4.6.2.2 2.9.8 6 1.3l5.7.9-.6-4.6c-.3-2.5-.6-4.7-.7-4.8-.1-.1-2.9-.5-6.2-.8l-6.2-.7.8 4.1zM479 316.5c0 2.3 4.6 11.8 6.3 13 2.4 1.7 8.3 2 9.2.5.3-.5-.1-2.4-.9-4.3-1-2.5-2.9-4.3-7.2-6.6-5.5-3-7.4-3.6-7.4-2.6zM533.5 321c-.3.5-.3 1.6.2 2.2.4.7 1.7 3.8 2.8 6.8 2.5 6.8 6 9.2 8.8 5.9 1.7-2.2 2.3-7.5.9-9.5-.6-1-10.4-6.4-11.6-6.4-.3 0-.8.4-1.1 1zM32 326.6c0 4.9 1 5.5 7.3 4.8 5.5-.7 5.7-.8 5-3.3-.3-1.4-.7-2.7-.7-2.8-.1-.1-2.8-.5-5.9-.9l-5.7-.7v2.9zM39.1 335.7c-4.9.4-5.3.6-4.7 2.6.3 1.2.6 2.8.6 3.4 0 .9 1.9 1.3 6.1 1.3h6.2l-.7-3.1c-.3-1.7-.6-3.5-.6-4s-.3-.8-.7-.7c-.5.1-3.2.3-6.2.5zM472.9 344.9c2.5 11.2 5.7 14.5 10.1 10.1 3.4-3.4 2.5-6.2-3.2-11-2.9-2.4-6-5-7-5.8-1.5-1.2-1.5-.7.1 6.7zM453.7 348.7c-.7 9.6.1 11.6 4.1 11.1 4.6-.6 4.9-2.9 1.2-11.2-1.8-4.2-3.6-7.9-4-8.1-.4-.2-1 3.5-1.3 8.2zM523.4 341.5c.4 1.1 1.2 4.1 1.8 6.7 1.4 5.9 5 9.7 7.3 7.8.9-.7 1.5-2.9 1.5-5.1 0-3-.6-4.2-2.9-5.8-1.6-1.2-3.3-2.1-3.7-2.1-.4 0-1.6-.8-2.7-1.8-2-1.6-2-1.6-1.3.3zM36.4 349.2c.3 1.3.6 2.9.6 3.5 0 1.4 4.7 1.7 9.8.7 2.6-.5 2.9-.9 2.3-3.3-.7-2.4-1.2-2.6-7-2.9-6.2-.3-6.3-.2-5.7 2zM497.6 347.9c-.9 1.4 2.6 16.4 4.3 18.4 3.7 4.3 10.2-.8 8.7-6.8-1.1-4.3-11.7-13.8-13-11.6zM40.8 358.7c-2.1.5-2.2 1.8-.7 6.2 1.1 3.2 1.2 3.2 6.3 2.6 2.8-.4 5.4-1 5.8-1.4.4-.4.3-2.3-.3-4.4-1-3.5-1.2-3.7-5.2-3.6-2.3.1-5 .3-5.9.6zM545.7 364.5c.9 3.8 1.9 8 2.4 9.2 1.5 4 6.9 2.3 6.9-2.2 0-1.1-2.4-4.7-5.4-8l-5.5-6 1.6 7zM320.5 377.2c-1.7 6.9-1.7 7.2.1 8.5 1 .7 2.3 1.2 2.9 1 1.2-.4 5.5-11.9 4.8-13-.2-.4-1.7-1.4-3.3-2.2l-2.8-1.4-1.7 7.1zM522 377.1c0 11.7 1.7 14.6 6.5 11.5 5-3.3 3.9-9-2.9-15.5l-3.6-3.5v7.5zM46.1 371.7c-3.1.4-3.3.6-2.7 3.5.3 1.8.8 3.4 1.1 3.6.3.3 3-.1 6.1-.8 4.9-1.2 5.5-1.6 5-3.4-.3-1.2-.6-2.4-.6-2.9 0-.7-2.8-.7-8.9 0zM476.6 374.5c-1.1 3-.7 21 .6 22.3 3.2 3.2 8.1-.2 9.4-6.6.5-2.2-.2-3.7-3.2-7.3-2-2.4-4.2-5.7-4.9-7.3-1-2.3-1.3-2.5-1.9-1.1zM330.2 383.2c-1.4 4.1-1.9 6.5-1.2 7.2 1.2 1.2 1.2 1.3 4.3-5.8 1.5-3.2 2.4-6.2 2.1-6.7-1.3-2.2-3.1-.4-5.2 5.3zM338 384.6c-3.1 7.1-3.5 9.4-1.7 9.4.9 0 3.1-2.6 5-5.7 3.2-5.2 3.4-5.8 1.9-7-2.6-1.9-3.1-1.6-5.2 3.3zM51 382.4c-2.5.7-4.5 1.6-4.5 2.1.1 2 2.9 8.5 3.7 8.5.8 0 8.8-3.8 9.6-4.6.9-.7-2.1-7.4-3.1-7.3-.7.1-3.2.6-5.7 1.3zM501 388.2c0 8 1.6 11.5 4.7 10.4.8-.3 1.7-.6 1.9-.6.2 0 .4-1.5.4-3.3 0-2-1.3-5.3-3.5-8.7l-3.5-5.4v7.6zM345.6 389.8c-3.2 5.2-3.4 5.8-1.9 7 2.1 1.5 2.4 1.1 5.6-6 2-4.5 2.2-5.8 1.2-6.2-.9-.3-2.7 1.6-4.9 5.2zM353 393.2c-2.5 5.6-2.6 6.4-1.2 6.9 1.3.5 2.4-.8 4.8-5.5 2.2-4.3 2.8-6.3 2-6.8-2.1-1.4-2.7-.8-5.6 5.4zM362.4 393.1c-3.9 7.2-4.5 9.2-3.2 10 1.8 1.1 2.3.5 4.8-5.6 1.6-4 2-5.9 1.2-6.7-.7-.7-1.6 0-2.8 2.3zM56.3 395.3c-3.9 1.9-5.8 4.7-3.3 4.7 2 0 10-4.5 9.7-5.4-.6-1.7-2.1-1.5-6.4.7zM367.8 399.4c-2.4 5.9-2.5 6.5-.9 6.9 1.4.3 2.3-.9 3.9-5.5 2-5.6 2.1-7.8.4-7.8-.4 0-1.9 2.9-3.4 6.4zM375.3 401.2c-1.6 4.7-1.9 6.5-1 7 2 1.3 2.3 1 4.1-5 1-3.1 2.1-6.3 2.3-7 .3-.7-.3-1.2-1.3-1.2-1.4 0-2.5 1.6-4.1 6.2zM383.1 403.2c-1.6 4.8-1.8 6.4-.9 6.9.7.5 1.6.5 2 .1 1.3-1.4 4.8-11.4 4.3-12.3-1.5-2.3-3.5-.4-5.4 5.3zM391 405.6c-1.9 5.5-2.1 6.7-.9 7.5 2.1 1.3 2 1.3 7.2-5.4 5.2-6.6 5.2-6.4-1.4-8-2.4-.6-2.7-.3-4.9 5.9zM518 407.7c0 8.8.1 9.3 2.1 9.3 3 0 4.8-2.8 4.9-7.3 0-2.9-.8-4.5-3.5-7.5l-3.4-3.7-.1 9.2zM58.8 402.4c-3.5 1.7-4.4 2.6-3.7 3.7.7 1.2 1.7 1 5.6-1.3 4.4-2.5 5.7-4 3.6-4.4-.4-.1-2.9.8-5.5 2zM401.6 409c-2.5 3.2-4.6 6-4.6 6.3 0 .3 1.1.8 2.5 1.1 2.5.6 4.4-.9 10.6-8.7 1.7-2.3 1.7-2.3-1-3.4-2.7-1-3.1-.7-7.5 4.7zM62.7 408.7c-2.7 1.3-4.7 2.7-4.4 3 .3.3 2.5-.5 4.9-1.8 5.4-3 5.2-2.8 4.7-3.3-.2-.2-2.6.7-5.2 2.1zM411.7 412.4c-2.6 3-4.7 5.7-4.7 5.9 0 .6 6 3.1 6.3 2.6.1-.3 2.4-2.8 5.1-5.6l4.8-5.1-3-1.6c-1.7-.9-3.3-1.6-3.5-1.6-.2 0-2.4 2.4-5 5.4zM474.6 414.8c-.7 8.2-.1 9.6 3.5 9 2.1-.3 2.4-.9 2.7-5.1.3-4.1-.1-5.3-2.6-8.1l-2.9-3.4-.7 7.6zM64.3 414.3c-4.6 2.3-5.1 3.3-2.9 6.3 1.5 1.9 1.6 1.9 6.3-.5 2.6-1.4 4.9-2.6 5.1-2.7.7-.4-2.2-5.4-3.2-5.3-.6 0-3 1-5.3 2.2zM426.7 419.5l-4.8 5.4 3.1 1.6c3 1.6 3.3 1.5 6.3-.8 1.8-1.3 4.9-3.6 7-5l3.8-2.6-4.7-2c-2.6-1.2-4.9-2.1-5.3-2-.3 0-2.8 2.4-5.4 5.4zM421.4 418.2l-2.9 3.3 3.3-2.9c3-2.8 3.7-3.6 2.9-3.6-.2 0-1.6 1.5-3.3 3.2zM494.1 421.3c-.7 3.4-.9 7-.6 7.9 1.5 3.8 7.1 3.2 8.1-.8.6-2.4-3.9-13.4-5.5-13.4-.4 0-1.3 2.8-2 6.3zM439.3 425.2c-3.5 2.3-6.3 4.5-6.3 4.8 0 .3 1.8 1.5 4.1 2.8l4 2.3 4.6-3.8c2.5-2.1 5.4-4.5 6.5-5.4 1.7-1.3 1.7-1.7.5-2.7-3.4-2.9-7-2.3-13.4 2zM70.5 423.5c-5.4 2.5-5.8 3-4.6 5.3 1.1 2.1 1.2 2.1 5.9-.9 6.8-4.3 5.8-7.8-1.3-4.4zM451.3 432.4c-3.4 2.8-5.8 5.5-5.4 5.9 1.1 1.1 16.1-5.1 16.1-6.6 0-.7-1.1-1.9-2.3-2.8-2.1-1.6-2.4-1.4-8.4 3.5zM73.3 431.9c-3.8 2.5-4.1 3-2.9 4.6 1.3 1.8 1.5 1.7 6-.9 3.1-1.8 4.6-3.3 4.4-4.4-.5-2.6-2.9-2.3-7.5.7zM515.3 440.2c-.9 7.1-.8 8.5.5 9.5 2.1 1.7 2.9 1.6 5.2-.7 2.8-2.8 2.5-6.1-1.1-11.9-1.8-2.8-3.3-5.1-3.4-5.1-.1 0-.7 3.7-1.2 8.2zM78.8 439.2c-5.3 3.3-5.4 3.5-3.3 6.2 1.4 1.8 1.6 1.7 6.4-1.4 4.3-2.7 4.9-3.5 4.1-5-1.6-2.9-2.2-2.9-7.2.2zM458.2 439l-6.3 3 2.2 3c1.3 1.6 2.5 3 2.8 3 1.2 0 12.1-3.6 12.6-4.2.9-.8-2.7-7.8-3.9-7.7-.6 0-3.9 1.4-7.4 2.9zM86 446.7c-1.9 1.3-4.1 2.8-4.9 3.2-1 .6-.7 1.7 1.5 4.9 1.6 2.3 3.1 4.1 3.4 4.1.3 0 2.4-1.6 4.7-3.7l4.3-3.7-2.8-3.6-2.7-3.6-3.5 2.4zM491.6 453.1c-.9 8.8-.8 12.5.5 15.3 1.6 3.5 3.8 4 6.6 1.5 3.7-3.5 3.1-8.2-2.1-16.2l-4.3-6.8-.7 6.2zM465.3 450.1l-6.1 1.9 2.6 6c2.6 5.9 2.7 6 6.8 6 2.3 0 5.5.3 7.2.6l3.1.6-1-3.8c-1.4-5.2-5-13.4-5.8-13.3-.3 0-3.4.9-6.8 2zM93.3 458.9c-2.4 2-4.3 4.2-4.3 4.9 0 1.1.4 1.1 1.8 0 5.1-3.6 8.4-7 7.6-7.8-.5-.5-2.7.8-5.1 2.9zM96.9 464.9c-3.3 3-4.1 4.2-3.3 5.1.9.9 2.2.3 5.3-2.5 3.8-3.5 5.3-6.5 3.2-6.5-.5 0-2.8 1.8-5.2 3.9zM102.1 470.4c-2.9 3-3.9 4.6-3.1 5.1 1.7 1 9.8-7.1 8.4-8.5-.7-.7-2.4.4-5.3 3.4zM465 473.3c0 6.2-.5 5.8 10.3 7.3l4.7.6v-5.1c0-4.7-.2-5.2-2.7-6.2-1.6-.6-4.9-1.3-7.5-1.6l-4.8-.6v5.6zM107.1 475.7c-3.9 3.5-4.1 3.9-2.4 4.9 1.6 1 2.4.6 5.2-2.8 4.7-5.6 2.7-7-2.8-2.1zM112.8 481.5l-3.7 4.2 2.3 2.2 2.2 2.1 3.2-3.9c3.7-4.6 3.8-5.2 1.5-7.4-1.7-1.4-2.1-1.2-5.5 2.8zM464 484.9c0 1 2.9 4 6.4 6.8l6.5 5.2.9-3.2c2.1-7 2.1-7.7-.1-8.2-1.2-.3-4.8-.9-7.9-1.3-5.1-.8-5.8-.7-5.8.7zM119.9 489.1c-2.8 3.5-3 4.2-1.7 5.5 1.2 1.3 1.8.9 4.7-3.1 2.9-4.1 3.4-6.5 1.1-6.5-.4 0-2.3 1.8-4.1 4.1zM125.8 495l-3.7 4.7 2.8 2.1c3.2 2.3 3.3 2.3 7.9-4.4l2.1-3.1-2.7-2-2.7-2-3.7 4.7zM460.2 494.4l-2.1 3.5 4.1 4.6c6 6.8 7.1 7.1 10.3 2.9l2.7-3.5-2.1-2.3c-1.2-1.3-4.2-3.7-6.6-5.5l-4.3-3.1-2 3.4zM134.7 502.1c-1.8 2.4-2.6 4.6-2.3 5.6.5 1.3 1.4.5 4-3.3 3.1-4.5 3.6-6.4 1.8-6.4-.4 0-2 1.9-3.5 4.1zM140.1 506.6c-2.3 3.6-2.8 5-1.9 5.6 2.2 1.3 8-7.4 6.1-9.3-.7-.7-2 .4-4.2 3.7zM453.8 504.2c-1.5 2.3-1.4 2.6 3.1 7.6l4.6 5.2 2.5-2 2.5-1.9-5.6-5.6-5.6-5.6-1.5 2.3zM145.8 511.2c-1.8 2.9-2.3 4.5-1.6 4.9 1.2.8 6.8-7 6.1-8.4-.8-1.4-1.8-.6-4.5 3.5zM447.7 510.6c-1 1.1 7.4 10.3 8.9 9.7 1-.3.2-1.9-2.8-5.4-4.1-4.9-4.9-5.5-6.1-4.3zM151.5 515.2l-2.8 4.2 2.9 2.3c3.9 3.1 4.7 2.9 6.7-1.7 2.1-5 2.2-4.5-1.2-6.9l-2.9-2.1-2.7 4.2zM440.6 516.5c-1 .8-2.4 1.6-2.9 1.8-1.2.4 5.1 9.7 6.6 9.7.5 0 2.5-1 4.4-2.1l3.4-2.1-2.8-3.1c-1.5-1.7-3.3-3.7-4-4.4-1.5-1.6-2.3-1.6-4.7.2zM162 522c-2.5 4.8-2.5 4.7 0 6 1.8.9 2.2.5 4.2-3.5 1.9-4 2-4.7.8-5.5-2.4-1.5-2.8-1.2-5 3zM171.7 522.7c-.4 1-1.3 3.2-2.1 5-1.3 2.9-1.3 3.1.6 3.6 1.5.4 2.3-.3 3.9-4s1.7-4.8.7-5.5c-1.9-1.2-2.5-1-3.1.9zM429.6 521.9c-.7 1.1 4.6 11.1 6 11.1.5 0 1.8-.6 2.7-1.3 1.5-1.1 1.3-1.7-1.9-6-3.4-4.5-5.6-5.7-6.8-3.8zM178.4 528.5l-2.1 5.3 3.5.7c4 .7 4.3.5 6.6-5.3 1.7-4.5 1.8-4.5-3.4-5.6-2.3-.5-2.7 0-4.6 4.9zM420.3 523.7l-2.3.4 2.6 5.2c3.8 7.5 4 7.7 7.4 6.6l2.9-1-3.4-5.7c-3.5-6-3.7-6.2-7.2-5.5zM410.3 525.7c-1.3.2-2.3.6-2.3.9 0 .2 1.5 3.3 3.2 6.9 3 6 3.5 6.5 5.8 6 1.4-.4 2.6-.8 2.8-1 .5-.4-6.2-13.5-6.8-13.4-.3.1-1.5.4-2.7.6zM190.2 531c-2 4.8-2 5-.2 5 1.3 0 2.6-1.5 4-4.6 2.4-5.6 2.4-5.4.1-5.4-1.3 0-2.5 1.5-3.9 5zM198.5 531.7c-1.1 2.6-2.1 5.1-2.3 5.5-.2.4.6.8 1.8.8 2.8 0 7-8.7 4.9-10.1-2.1-1.3-2.3-1.2-4.4 3.8zM400.9 528.8c-1.5.6-1.5 1.3.4 7.5 2 6.8 2.1 6.9 5.1 6.3 1.6-.4 3.1-.8 3.3-1 .5-.5-6-13.6-6.7-13.5-.3 0-1.2.3-2.1.7zM207.1 532.7c-.8 2.1-1.6 4.4-1.8 5-.3.7.2 1.3 1 1.3.9 0 1.8-1.3 2.2-3.3.4-1.7.9-4 1.1-5 1-3.4-1.2-1.6-2.5 2zM214.7 529.7c-.2.5-.7 2.1-1.1 3.8-.4 1.6-.9 3.8-1.2 4.7-.3 1.1 0 1.8.9 1.8 1.6 0 4-9.7 2.6-10.5-.4-.3-1-.2-1.2.2zM220.2 535.2c-1.1 5.7-.9 6.8 1.3 6.8.8 0 1.8-2 2.4-5 1.4-6.7 1.4-7-.8-7-1.4 0-2.1 1.2-2.9 5.2zM229.6 532.2c-.2.7-.9 3.2-1.4 5.5-1 4.3-1 4.3 1.8 4.3 2.2 0 2.9-.5 3.3-2.9.3-1.6.9-4 1.3-5.5.5-2.3.3-2.6-2-2.6-1.5 0-2.8.6-3 1.2zM238.6 536.3c-1.8 6.4-1.9 6.7-.8 6.7 1.1 0 3.8-10.8 3-11.6-.4-.3-1.3 1.9-2.2 4.9zM392.3 531.6c-.7.3-1 1.1-.8 1.7.2.7 1.1 3.8 2 6.9 1.6 5.9 2 6.4 4.2 5 1-.6.9-2.2-.5-7.2-1.8-6.3-2.6-7.3-4.9-6.4zM245 536.2c-.6 2.4-1.3 4.9-1.5 5.6-.3.9.2 1.2 1.7 1 1.7-.2 2.4-1.4 3.3-5.6 1.1-4.8 1.1-5.2-.6-5.2-1.3 0-2.1 1.2-2.9 4.2zM253 538.1c-.7 2.7-1.1 5.2-.9 5.4.2.1 1.7.5 3.3.7 2.8.3 3 0 4.3-4.7 1.7-6.7 1.8-6.5-2.1-6.5-3.3 0-3.5.2-4.6 5.1zM380.3 533.7c-3.6.5-3.8 1.2-2.7 9.7l.7 4.7 6.1-.7c3.4-.4 6.2-.7 6.3-.8.1 0-.8-3.1-2-6.9-1.5-4.7-2.6-6.7-3.6-6.5-.9 0-3.1.3-4.8.5zM264.2 539.6c-.6 3.2-1.1 5.8-.9 5.9.1.2 2.3.5 4.9.7 5.2.6 5.1.7 6.3-7 .6-3.7.5-4.2-1.3-4.2-1.1 0-3.3-.3-4.9-.6-2.8-.5-2.9-.4-4.1 5.2zM360 535.7c-3.4.7-4 1.9-4 8v5.3h7v-7c0-3.9-.1-6.9-.2-6.9-.2.1-1.4.4-2.8.6zM368 541.5v6.5h3.1c2.8 0 3.1-.3 2.5-2.3-.3-1.2-.6-4.1-.6-6.5 0-3.8-.2-4.2-2.5-4.2-2.4 0-2.5.2-2.5 6.5zM279.5 537.2c-.2.7-.8 3.4-1.3 6-.7 3.7-.7 4.8.3 4.8 1.2 0 3.5-6.9 3.5-10.4 0-1.9-1.9-2.1-2.5-.4zM286.1 540.7c-1.6 5.7-1.4 8.3.7 8.3 1.3 0 2.1-1.3 3-4.5 1.6-6.2 1.5-7.5-.8-7.5-1.4 0-2.2 1.1-2.9 3.7zM295.6 538.9c-.2.9-.7 2.9-1.1 4.6-.3 1.6-.8 3.8-1.1 4.7-.4 1.4.1 1.8 2.5 1.8 3.2 0 3.1 0 4.5-9.7.4-2.7-4.1-4-4.8-1.4zM345.6 540.1c-.3 1.7-.6 4.4-.6 6 0 2.5.4 2.9 2.9 2.9s2.9-.4 3.5-3.8c1.2-7.2.9-8.2-2.3-8.2-2.4 0-2.9.5-3.5 3.1zM304.6 541.7c-1.2 7.5-.8 9.3 1.9 9.3 2.4 0 2.5-.2 2.5-6.5 0-5.7-.2-6.5-1.9-6.5-1.4 0-2 1-2.5 3.7zM313.2 544.5c-.3 6.3-.2 6.5 2.1 6.5 2.8 0 3.7-2.1 3.7-8.8 0-3.9-.2-4.2-2.8-4.2-2.7 0-2.7.1-3 6.5zM324.5 539c-.4.6-.9 3.5-1.2 6.5l-.6 5.5H329v-5.9c0-4.4-.4-6-1.6-6.5-2.1-.8-2.2-.8-2.9.4zM333 544v6h8v-12h-8v6z"/></svg>