<svg version="1.0" xmlns="http://www.w3.org/2000/svg" width="404" height="404" viewBox="0 0 303 303"><path d="M102.5 17.1c-4.4.4-11.4 1.9-15.5 3.3-4 1.4-7.4 2.6-7.6 2.6-1.3 0-10 13.8-16.3 25.8C53.3 67.5 48 75.6 39.8 84.1c-4.9 5-7.2 8.5-9.6 14.3-3.8 9-6.2 20.5-6.2 29.5 0 3.5-.6 8.7-1.4 11.5-.8 2.8-2.2 8.2-3.1 12.1-1 3.8-2.6 10.1-3.7 14-1.8 6.6-2.3 10.6-4.8 38.5-.5 6.3-2.1 16-3.4 21.5-1.3 5.5-2.6 13.4-3 17.5-.3 4.1-1.4 10.9-2.6 15-1.6 6.2-2 10.7-2 26.2V303h81l.1-2.8c.4-9.5 1.3-12.7 3.2-11.9 1.8.7 4-7.8 4.2-16.3.1-4.8 1.8-11.7 6.3-26.5 3.4-11 6.8-23.8 7.7-28.5.8-4.7 2.1-10.8 3-13.6 1.5-5.1 1.6-5.2 5.8-5.6 2.3-.2 6.5-.2 9.4 0 5 .4 6.4 1.6 8.8 7.3.2.4 16.3 1.5 17.7 1.1 1.9-.5 2-1.4.2-5.6-.7-1.7-.4-1.9 2.6-1.3 1.8.4 6.1.2 9.6-.4 6-1 6.4-1.3 6.4-3.8 0-5.2-1.5-5.8-14.5-6.5-21.5-1-25.7-3.3-32.8-18-4.1-8.4-5-11.3-7.1-24.8-1.4-8.4-3.5-23.4-4.7-33.2-1.9-15-2-18.6-1-22.4 1.3-4.9 5.9-11.8 11.3-16.8 6.4-6 23.2-18.2 27.1-19.7 1.1-.4 2.1-1.6 2.4-2.7.3-1.1 2-2.7 3.8-3.6 1.9-.9 3.9-2.8 4.6-4.6 1.1-2.6 1-3.5-.6-6.4-1-1.8-2.7-3.6-3.9-4-1.2-.3-3-1.5-4.1-2.5-1.2-1.1-4.7-2.2-8.5-2.8-8.3-1.2-11.3-2.4-13.6-5.3-1.7-2.2-10.3-6-12.8-5.7-.6.1-4.7.5-9.1 1zM87.3 31.5c-.1.5-1.7 1.2-3.5 1.5-4.4.7-4.9 3.4-.9 5.5C86 40 87.2 43 84.8 43c-1.9 0-8.8-6.6-8.8-8.4 0-2.9 3.1-4.7 7.4-4.4 2.2.2 4 .7 3.9 1.3zm31.1.4c1.6 1.7 1.5 1.9-1.6 2.5-4.1.8-6.1-.9-3.4-3 2.5-1.8 2.9-1.8 5 .5zm15.3 8.8c4.4 1.4 5.9 1.5 8.6.5 5.1-1.8 8.7-1.6 8.7.7 0 2.6-2.5 4.4-5.2 3.8-2.6-.7-21.2 5.2-21.6 6.8-.5 1.9 3.7 1.6 11.2-.9 4.2-1.4 7.9-2.6 8.2-2.6 1.5 0-2.1 3.1-6.4 5.6-2.6 1.5-7.2 4.6-10.2 6.8-21.4 15.8-26.5 24.7-32.9 57.6-5.5 28.4-5.4 48 .4 60.7 1.3 2.9 2 5.3 1.4 5.3-.5 0-.9 3.3-.9 7.4v7.5l3.5-.6c2.5-.4 3.5-.2 3.5.7 0 3.4-5.3 26.5-6.9 30.1l-1.9 4.1-1.5-2.3c-5.6-8.7-7.3-18.8-8.1-49.4-.7-24.6-3-35.4-11.6-54.5S60 98 60 89c0-6.5.5-8.2 4.1-15.9 8.7-18 16.3-25.5 28.1-27.7 9.3-1.8 18.6-1.8 22 0 2.4 1.3 2.8 1.2 5-1.1 1.9-2.1 6.9-5.1 8.7-5.3.2 0 2.8.8 5.8 1.7zM41 160.2c0 .6 2 5.2 4.4 10.2 2.4 5 5.8 12 7.4 15.6 3.1 6.4 7.2 10.6 16.2 16.3 2.9 1.9 3.3 1.9 2.7.4-.5-1.3.1-2.1 2.1-2.9 1.5-.6 3-1.1 3.5-1 1.9.5.2-3.6-4.4-10.4-4.6-6.8-5.1-8.1-5.6-14.7-.7-9.5 1.2-8 3 2.4 1 5.5 2.3 8.8 4.7 12.3 4.9 7.2 8 19.6 4.8 19.6-.6 0-1.9.7-2.9 1.6-2.1 1.9-3.2 1.4-13.1-6.3-8.8-6.6-12.9-12.2-16.7-21.9-1.8-4.9-4.1-10-5.1-11.4-1.8-2.6-3.2-11-1.8-11 .5 0 .8.5.8 1.2zm92.5 39.3c0 2.5-.3 3.1-1.2 2.3-1.4-1.1-1.7-5-.6-6.1 1.1-1.2 1.8.3 1.8 3.8zm5.5-.5c0 1.1-.4 2-.9 2-1.4 0-2.3-1.8-1.6-3 1-1.7 2.5-1.1 2.5 1zm5 1c0 1.1-.4 2-1 2-.5 0-1-.9-1-2s.5-2 1-2c.6 0 1 .9 1 2zm-84.9 5.1c3.6 2.8 5.2 5.9 3.1 5.9-1.3 0-9.2-5.9-9.2-6.8 0-.9 1-2.2 1.8-2.2.2 0 2.2 1.4 4.3 3.1zm-2.6 5.6c3 1.5 5.5 3 5.5 3.4 0 2-2.5 1.8-7.5-.5-4.1-1.8-5.3-2.9-4.9-4 .8-2 .4-2.1 6.9 1.1zm.3 9.9c1.3.3 2.2 1 1.9 1.7-.3.8-2.3 1.1-6.3.9-6.6-.4-6.9-.5-6.1-2.6.6-1.5 3.4-1.5 10.5 0zm0 7.1c-.4 2.4-10.8 3.3-10.8.9 0-1.7 1.9-2.3 7.3-2.5 3.2-.1 3.8.2 3.5 1.6zm1.2 7.2c0 1.1-1.9 3-5.1 5-5.9 3.6-5.9 3.6-5.9 1.3 0-.9 2.2-3.1 4.8-4.9 5.6-3.7 6.2-3.9 6.2-1.4zm1 13c-.4.9-2.2 2.9-3.9 4.5-2.4 2.3-3.4 2.7-4.3 1.8-.9-.9-.2-2.2 3.2-5.7 3-3 4.6-4.1 5.1-3.3.4.7.4 1.9-.1 2.7zm4.5 7.1c.5.9-1.4 4.1-5.2 8.9-.2.3-.8 0-1.5-.7-.8-.8-.4-2.1 1.7-5.2 2.9-4.1 3.9-4.8 5-3zm6.9 6.9c1 1.5-4.5 12.4-5.6 11.3-.7-.7-.3-2.9 1.3-6.6 2.2-5.5 3.2-6.5 4.3-4.7zM76 266c0 2.3-5 12.1-5.9 11.5-.7-.3-.1-2.8 1.4-6.2 1.4-3 2.5-5.7 2.5-5.9 0-.2.5-.4 1-.4.6 0 1 .4 1 1zm7 5.4c0 2.1-4.2 11.6-5.1 11.6-2 0-1.9-2.5.1-7.6 2-4.9 5-7.4 5-4z"/><path d="M87.7 184.6c-.9 1-.9 16.4.1 16.4 2.4-.1 3.2-2.2 3.4-9 .2-6.1 0-7.5-1.2-7.8-.9-.1-1.9 0-2.3.4zM299.1 143.7c-1.7 2.1-3.1 4-3.1 4.3 0 .3 1.6.4 3.5.2 3.3-.4 3.5-.6 3.5-4.3 0-2.1-.2-3.9-.4-3.9-.3 0-1.8 1.7-3.5 3.7zM275.1 158.6c-1.8 2.5-4.5 5.6-5.9 7l-2.7 2.4h3c3.3 0 11-3.2 13.7-5.7 2.1-1.9 2.3-5.4.6-7.1-2.4-2.4-5.4-1.3-8.7 3.4zM298.2 175c-4.7 1.1-4.8 1.6-1.1 3.9 4.8 2.9 5.9 2.7 5.9-1.4 0-1.9-.3-3.5-.7-3.4-.5.1-2.3.5-4.1.9zM189 178.7c-1.9.8-5.5 2.3-8 3.3l-4.4 1.8 3.4 2.1c3.7 2.2 9.3 2.7 13.4 1.1 2.2-.8 2.6-1.6 2.6-4.9 0-2.6-.5-4.1-1.6-4.5-.9-.3-1.6-.6-1.7-.6-.1.1-1.8.8-3.7 1.7zM236 179.9c-3.6 1.6-7.4 3.2-8.5 3.6-3.1 1.1 9.9 4.6 14.6 3.9 6.1-1 6.7-1.8 4.4-6.1-1.1-2-2.4-3.8-3-4-.5-.1-3.9 1-7.5 2.6zM203 187.7c0 2.1 8.1 8.4 10.3 8.1 2.7-.4 3.5-4.8 1.4-6.7-2-1.6-11.7-2.7-11.7-1.4zM267 192c4.7 3.9 9 5.3 12.4 4.1 1.4-.6 2.6-1.7 2.6-2.4 0-2-7.7-4.7-13.5-4.7h-4.9l3.4 3zM293 194.6c0 1 8.2 15.4 9.1 16 .5.3.9-2.3.9-6 0-5.6-.3-6.7-2.1-7.7-2.7-1.4-7.9-2.9-7.9-2.3zM232.2 201.9c4 8.9 6.3 11.3 10.8 10.9 2.9-.3 3.5-.7 3.8-2.9.4-3.7-3-7.2-10.9-11.2l-6.7-3.4 3 6.6zM186.7 203.1c5.7 5.9 6.2 6.1 9.6 5.5 1.9-.4 4.6-1.5 5.9-2.6 2.2-1.8 2.2-2 .8-4.7-1.8-3.3-4.5-4-14.9-4.2l-7.3-.1 5.9 6.1zM273.4 214.6c2.2 9 2.8 10.3 6 12.8 5.6 4.2 8.5 3.3 5.9-1.8-2.4-4.7-6.3-9.4-9.6-11.8l-3-2.2.7 3zM217 214.7c0 .4 1 4.2 2.1 8.5 1.5 5.6 2.8 8.4 4.6 9.8 3.6 2.8 7.1 2.6 7.9-.5.9-3.8-.3-7.1-4.3-11.6-4.2-4.7-10.3-8.3-10.3-6.2zM250.6 225.7c1.1 4.5 4.3 10.2 6.3 11.3 2.5 1.3 9.1 1.3 9.1 0 0-3.8-3.2-7.9-8.4-10.8-6.9-3.9-7.8-4-7-.5zM244 252.1c2.1 9.7 4.5 12.9 8.4 11.1 2.8-1.2 4.4-5.7 3-8-.5-.8-3.7-3.6-7.1-6.3l-6.1-4.9 1.8 8.1zM224.7 255.7c-.7 9.7-.1 11.3 4.4 11.3s4.6-3.3.5-12.3c-1.9-4.2-3.7-7.7-3.9-7.7-.2 0-.7 3.9-1 8.7zM294.3 248.4c.4 1 1.2 3.9 1.9 6.5 1 4.3 4.2 9.1 6 9.1.4 0 .8-2.6.8-5.8 0-5.4-.2-6-2.7-7.2-1.6-.8-3.7-2.1-4.7-3-1.8-1.4-1.9-1.4-1.3.4zM268.6 254.9c-.9 1.4 2.6 16.4 4.3 18.4 3.7 4.3 10.2-.8 8.7-6.8-1.1-4.3-11.7-13.8-13-11.6zM91.5 284.2c-1.7 6.9-1.7 7.2.1 8.5 1 .7 2.3 1.2 2.9 1 1.2-.4 5.5-11.9 4.8-13-.2-.4-1.7-1.4-3.3-2.2l-2.8-1.4-1.7 7.1zM293.2 285.7c.2 5.5.8 9.7 1.5 10.4 1.8 1.8 6.1-.4 7.4-3.8 1.3-3.6-.1-7-5.3-11.9l-4-3.9.4 9.2zM247.6 281.5c-.3.9-.6 6.1-.6 11.6v9.9h3.9c4.3 0 5.8-1.3 6.7-5.6.5-2.5-.1-3.8-3.2-7.5-2-2.4-4.2-5.7-4.9-7.3-1-2.3-1.3-2.5-1.9-1.1zM101.2 290.1c-2.1 5.7-2.1 7.9-.3 7.9.8 0 6.1-11.6 6.1-13.3 0-.4-.8-.7-1.8-.7-1.3 0-2.4 1.7-4 6.1zM109 291.6c-3.1 7.1-3.5 9.4-1.7 9.4.9 0 3.1-2.6 5-5.7 3.2-5.2 3.4-5.8 1.9-7-2.6-1.9-3.1-1.6-5.2 3.3zM272 295.2v7.8h3.9c4 0 4 0 3.1-3.1-.5-1.8-2.3-5.2-4-7.8l-3-4.6v7.7zM119.2 292.3c-.5.7-2.1 3.4-3.6 6l-2.8 4.8 2.7-.3c2.2-.2 3.2-1.3 5-5.5 1.8-4.1 2-5.3 1-5.7-.8-.3-1.8.1-2.3.7zM125 298c-2.5 4.8-2.5 5 0 5 1.3 0 2.6-1.4 4-3.9 1.7-3.4 1.8-4 .4-4.5-2.3-.9-2.2-.9-4.4 3.4zM133.6 299.4c-2.1 3.2-2 3.6.3 3.6 2.2 0 3.8-3.7 2.3-5.2-.6-.6-1.5 0-2.6 1.6zM140.7 301.5c-.5 1 0 1.5 1.4 1.5 1.2 0 1.9-.5 1.7-1.2-.6-1.8-2.5-2-3.1-.3zM148.8 302.7c.6.2 1.8.2 2.5 0 .6-.3.1-.5-1.3-.5-1.4 0-1.9.2-1.2.5z"/></svg>